<svg id="visual" viewBox="0 0 1080 720" width="1080" height="720" xmlns="http://www.w3.org/2000/svg" xmlns:xlink="http://www.w3.org/1999/xlink" version="1.1"><rect x="0" y="0" width="1080" height="720" fill="#050F17"></rect><path d="M0 394L18 384.3C36 374.7 72 355.3 108 350.3C144 345.3 180 354.7 216 365.2C252 375.7 288 387.3 324 381.7C360 376 396 353 432 357.7C468 362.3 504 394.7 540 403.7C576 412.7 612 398.3 648 407.7C684 417 720 450 756 444.8C792 439.7 828 396.3 864 390.5C900 384.7 936 416.3 972 419.3C1008 422.3 1044 396.7 1062 383.8L1080 371L1080 721L1062 721C1044 721 1008 721 972 721C936 721 900 721 864 721C828 721 792 721 756 721C720 721 684 721 648 721C612 721 576 721 540 721C504 721 468 721 432 721C396 721 360 721 324 721C288 721 252 721 216 721C180 721 144 721 108 721C72 721 36 721 18 721L0 721Z" fill="#faed69"></path><path d="M0 397L18 415.7C36 434.3 72 471.7 108 471.3C144 471 180 433 216 423C252 413 288 431 324 449.3C360 467.7 396 486.3 432 484.5C468 482.7 504 460.3 540 460.5C576 460.7 612 483.3 648 485.8C684 488.3 720 470.7 756 462.2C792 453.7 828 454.3 864 439.8C900 425.3 936 395.7 972 401.8C1008 408 1044 450 1062 471L1080 492L1080 721L1062 721C1044 721 1008 721 972 721C936 721 900 721 864 721C828 721 792 721 756 721C720 721 684 721 648 721C612 721 576 721 540 721C504 721 468 721 432 721C396 721 360 721 324 721C288 721 252 721 216 721C180 721 144 721 108 721C72 721 36 721 18 721L0 721Z" fill="#f9df5c"></path><path d="M0 441L18 443.5C36 446 72 451 108 446.7C144 442.3 180 428.7 216 425.2C252 421.7 288 428.3 324 448.2C360 468 396 501 432 497.3C468 493.7 504 453.3 540 438.2C576 423 612 433 648 454.5C684 476 720 509 756 522.2C792 535.3 828 528.7 864 511.3C900 494 936 466 972 467.2C1008 468.3 1044 498.7 1062 513.8L1080 529L1080 721L1062 721C1044 721 1008 721 972 721C936 721 900 721 864 721C828 721 792 721 756 721C720 721 684 721 648 721C612 721 576 721 540 721C504 721 468 721 432 721C396 721 360 721 324 721C288 721 252 721 216 721C180 721 144 721 108 721C72 721 36 721 18 721L0 721Z" fill="#f8d051"></path><path d="M0 539L18 546.7C36 554.3 72 569.7 108 565.5C144 561.3 180 537.7 216 517.8C252 498 288 482 324 473C360 464 396 462 432 478.5C468 495 504 530 540 544.3C576 558.7 612 552.3 648 551.8C684 551.3 720 556.7 756 547.3C792 538 828 514 864 517.8C900 521.7 936 553.3 972 548.3C1008 543.3 1044 501.7 1062 480.8L1080 460L1080 721L1062 721C1044 721 1008 721 972 721C936 721 900 721 864 721C828 721 792 721 756 721C720 721 684 721 648 721C612 721 576 721 540 721C504 721 468 721 432 721C396 721 360 721 324 721C288 721 252 721 216 721C180 721 144 721 108 721C72 721 36 721 18 721L0 721Z" fill="#f6c247"></path><path d="M0 514L18 512C36 510 72 506 108 520.7C144 535.3 180 568.7 216 570.3C252 572 288 542 324 543.8C360 545.7 396 579.3 432 593C468 606.7 504 600.3 540 595.5C576 590.7 612 587.3 648 589.2C684 591 720 598 756 590.5C792 583 828 561 864 550.5C900 540 936 541 972 536.3C1008 531.7 1044 521.3 1062 516.2L1080 511L1080 721L1062 721C1044 721 1008 721 972 721C936 721 900 721 864 721C828 721 792 721 756 721C720 721 684 721 648 721C612 721 576 721 540 721C504 721 468 721 432 721C396 721 360 721 324 721C288 721 252 721 216 721C180 721 144 721 108 721C72 721 36 721 18 721L0 721Z" fill="#f4b43f"></path><path d="M0 560L18 562.5C36 565 72 570 108 576.2C144 582.3 180 589.7 216 598.2C252 606.7 288 616.3 324 608.7C360 601 396 576 432 570.3C468 564.7 504 578.3 540 585.2C576 592 612 592 648 588C684 584 720 576 756 573C792 570 828 572 864 578.3C900 584.7 936 595.3 972 593.3C1008 591.3 1044 576.7 1062 569.3L1080 562L1080 721L1062 721C1044 721 1008 721 972 721C936 721 900 721 864 721C828 721 792 721 756 721C720 721 684 721 648 721C612 721 576 721 540 721C504 721 468 721 432 721C396 721 360 721 324 721C288 721 252 721 216 721C180 721 144 721 108 721C72 721 36 721 18 721L0 721Z" fill="#f1a538"></path><path d="M0 646L18 636.7C36 627.3 72 608.7 108 608.3C144 608 180 626 216 634.5C252 643 288 642 324 641.7C360 641.3 396 641.7 432 638.8C468 636 504 630 540 629.7C576 629.3 612 634.7 648 638.2C684 641.7 720 643.3 756 646.5C792 649.7 828 654.3 864 651.8C900 649.3 936 639.7 972 640.7C1008 641.7 1044 653.3 1062 659.2L1080 665L1080 721L1062 721C1044 721 1008 721 972 721C936 721 900 721 864 721C828 721 792 721 756 721C720 721 684 721 648 721C612 721 576 721 540 721C504 721 468 721 432 721C396 721 360 721 324 721C288 721 252 721 216 721C180 721 144 721 108 721C72 721 36 721 18 721L0 721Z" fill="#ed9732"></path><path d="M0 650L18 657.2C36 664.3 72 678.7 108 687.7C144 696.7 180 700.3 216 695.8C252 691.3 288 678.7 324 674.8C360 671 396 676 432 674.8C468 673.7 504 666.3 540 668C576 669.7 612 680.3 648 682C684 683.7 720 676.3 756 671.2C792 666 828 663 864 661.5C900 660 936 660 972 659.8C1008 659.7 1044 659.3 1062 659.2L1080 659L1080 721L1062 721C1044 721 1008 721 972 721C936 721 900 721 864 721C828 721 792 721 756 721C720 721 684 721 648 721C612 721 576 721 540 721C504 721 468 721 432 721C396 721 360 721 324 721C288 721 252 721 216 721C180 721 144 721 108 721C72 721 36 721 18 721L0 721Z" fill="#e9882e"></path></svg>