<svg id="visual" viewBox="0 0 900 600" width="900" height="600" xmlns="http://www.w3.org/2000/svg" xmlns:xlink="http://www.w3.org/1999/xlink" version="1.1"><rect x="0" y="0" width="900" height="600" fill="#050F17"></rect><path d="M0 405L16.7 393.8C33.3 382.7 66.7 360.3 100 341C133.3 321.7 166.7 305.3 200 304.2C233.3 303 266.7 317 300 332.2C333.3 347.3 366.7 363.7 400 356C433.3 348.3 466.7 316.7 500 319.8C533.3 323 566.7 361 600 364.8C633.3 368.7 666.7 338.3 700 334C733.3 329.7 766.7 351.3 800 354.2C833.3 357 866.7 341 883.3 333L900 325L900 601L883.3 601C866.7 601 833.3 601 800 601C766.7 601 733.3 601 700 601C666.7 601 633.3 601 600 601C566.7 601 533.3 601 500 601C466.7 601 433.3 601 400 601C366.7 601 333.3 601 300 601C266.7 601 233.3 601 200 601C166.7 601 133.3 601 100 601C66.7 601 33.3 601 16.7 601L0 601Z" fill="#faed69"></path><path d="M0 317L16.7 320.7C33.3 324.3 66.7 331.7 100 330.3C133.3 329 166.7 319 200 323.7C233.3 328.3 266.7 347.7 300 365.2C333.3 382.7 366.7 398.3 400 403.2C433.3 408 466.7 402 500 390.8C533.3 379.7 566.7 363.3 600 355.5C633.3 347.7 666.7 348.3 700 346.8C733.3 345.3 766.7 341.7 800 348.3C833.3 355 866.7 372 883.3 380.5L900 389L900 601L883.3 601C866.7 601 833.3 601 800 601C766.7 601 733.3 601 700 601C666.7 601 633.3 601 600 601C566.7 601 533.3 601 500 601C466.7 601 433.3 601 400 601C366.7 601 333.3 601 300 601C266.7 601 233.3 601 200 601C166.7 601 133.3 601 100 601C66.7 601 33.3 601 16.7 601L0 601Z" fill="#f9df5c"></path><path d="M0 357L16.7 374.7C33.3 392.3 66.7 427.7 100 435.8C133.3 444 166.7 425 200 422.3C233.3 419.7 266.7 433.3 300 433C333.3 432.7 366.7 418.3 400 420.8C433.3 423.3 466.7 442.7 500 445.2C533.3 447.7 566.7 433.3 600 426.3C633.3 419.3 666.7 419.7 700 411.3C733.3 403 766.7 386 800 387.8C833.3 389.7 866.7 410.3 883.3 420.7L900 431L900 601L883.3 601C866.7 601 833.3 601 800 601C766.7 601 733.3 601 700 601C666.7 601 633.3 601 600 601C566.7 601 533.3 601 500 601C466.7 601 433.3 601 400 601C366.7 601 333.3 601 300 601C266.7 601 233.3 601 200 601C166.7 601 133.3 601 100 601C66.7 601 33.3 601 16.7 601L0 601Z" fill="#f8d051"></path><path d="M0 492L16.7 481.7C33.3 471.3 66.7 450.7 100 448.2C133.3 445.7 166.7 461.3 200 468C233.3 474.7 266.7 472.3 300 473.2C333.3 474 366.7 478 400 476.5C433.3 475 466.7 468 500 455.3C533.3 442.7 566.7 424.3 600 412C633.3 399.7 666.7 393.3 700 404.7C733.3 416 766.7 445 800 449.7C833.3 454.3 866.7 434.7 883.3 424.8L900 415L900 601L883.3 601C866.7 601 833.3 601 800 601C766.7 601 733.3 601 700 601C666.7 601 633.3 601 600 601C566.7 601 533.3 601 500 601C466.7 601 433.3 601 400 601C366.7 601 333.3 601 300 601C266.7 601 233.3 601 200 601C166.7 601 133.3 601 100 601C66.7 601 33.3 601 16.7 601L0 601Z" fill="#f6c247"></path><path d="M0 425L16.7 435.5C33.3 446 66.7 467 100 475C133.3 483 166.7 478 200 469.2C233.3 460.3 266.7 447.7 300 449C333.3 450.3 366.7 465.7 400 471.2C433.3 476.7 466.7 472.3 500 463.2C533.3 454 566.7 440 600 443.7C633.3 447.3 666.7 468.7 700 472.3C733.3 476 766.7 462 800 464.2C833.3 466.3 866.7 484.7 883.3 493.8L900 503L900 601L883.3 601C866.7 601 833.3 601 800 601C766.7 601 733.3 601 700 601C666.7 601 633.3 601 600 601C566.7 601 533.3 601 500 601C466.7 601 433.3 601 400 601C366.7 601 333.3 601 300 601C266.7 601 233.3 601 200 601C166.7 601 133.3 601 100 601C66.7 601 33.3 601 16.7 601L0 601Z" fill="#f4b43f"></path><path d="M0 471L16.7 478.5C33.3 486 66.7 501 100 507.8C133.3 514.7 166.7 513.3 200 507.8C233.3 502.3 266.7 492.7 300 497C333.3 501.3 366.7 519.7 400 521.8C433.3 524 466.7 510 500 500.3C533.3 490.7 566.7 485.3 600 489.2C633.3 493 666.7 506 700 505.8C733.3 505.7 766.7 492.3 800 489C833.3 485.7 866.7 492.3 883.3 495.7L900 499L900 601L883.3 601C866.7 601 833.3 601 800 601C766.7 601 733.3 601 700 601C666.7 601 633.3 601 600 601C566.7 601 533.3 601 500 601C466.7 601 433.3 601 400 601C366.7 601 333.3 601 300 601C266.7 601 233.3 601 200 601C166.7 601 133.3 601 100 601C66.7 601 33.3 601 16.7 601L0 601Z" fill="#f1a538"></path><path d="M0 536L16.7 530.3C33.3 524.7 66.7 513.3 100 513.5C133.3 513.7 166.7 525.3 200 528C233.3 530.7 266.7 524.3 300 524.3C333.3 524.3 366.7 530.7 400 532.8C433.3 535 466.7 533 500 530.3C533.3 527.7 566.7 524.3 600 524.7C633.3 525 666.7 529 700 529.7C733.3 530.3 766.7 527.7 800 529.3C833.3 531 866.7 537 883.3 540L900 543L900 601L883.3 601C866.7 601 833.3 601 800 601C766.7 601 733.3 601 700 601C666.7 601 633.3 601 600 601C566.7 601 533.3 601 500 601C466.7 601 433.3 601 400 601C366.7 601 333.3 601 300 601C266.7 601 233.3 601 200 601C166.7 601 133.3 601 100 601C66.7 601 33.3 601 16.7 601L0 601Z" fill="#ed9732"></path><path d="M0 585L16.7 578.8C33.3 572.7 66.7 560.3 100 555.2C133.3 550 166.7 552 200 553.5C233.3 555 266.7 556 300 561.3C333.3 566.7 366.7 576.3 400 572.7C433.3 569 466.7 552 500 549C533.3 546 566.7 557 600 559.2C633.3 561.3 666.7 554.7 700 553.3C733.3 552 766.7 556 800 562.2C833.3 568.3 866.7 576.7 883.3 580.8L900 585L900 601L883.3 601C866.7 601 833.3 601 800 601C766.7 601 733.3 601 700 601C666.7 601 633.3 601 600 601C566.7 601 533.3 601 500 601C466.7 601 433.3 601 400 601C366.7 601 333.3 601 300 601C266.7 601 233.3 601 200 601C166.7 601 133.3 601 100 601C66.7 601 33.3 601 16.7 601L0 601Z" fill="#e9882e"></path></svg>