<svg id="visual" viewBox="0 0 540 960" width="540" height="960" xmlns="http://www.w3.org/2000/svg" xmlns:xlink="http://www.w3.org/1999/xlink" version="1.1"><rect x="0" y="0" width="540" height="960" fill="#050F17"></rect><path d="M0 474L12.8 489C25.7 504 51.3 534 77 550.3C102.7 566.7 128.3 569.3 154 566.8C179.7 564.3 205.3 556.7 231.2 555.2C257 553.7 283 558.3 308.8 561.3C334.7 564.3 360.3 565.7 386 548.2C411.7 530.7 437.3 494.3 463 483.2C488.7 472 514.3 486 527.2 493L540 500L540 961L527.2 961C514.3 961 488.7 961 463 961C437.3 961 411.7 961 386 961C360.3 961 334.7 961 308.8 961C283 961 257 961 231.2 961C205.3 961 179.7 961 154 961C128.3 961 102.7 961 77 961C51.3 961 25.7 961 12.8 961L0 961Z" fill="#faed69"></path><path d="M0 576L12.8 580.2C25.7 584.3 51.3 592.7 77 599C102.7 605.3 128.3 609.7 154 594C179.7 578.3 205.3 542.7 231.2 523.2C257 503.7 283 500.3 308.8 501.8C334.7 503.3 360.3 509.7 386 524.3C411.7 539 437.3 562 463 568.5C488.7 575 514.3 565 527.2 560L540 555L540 961L527.2 961C514.3 961 488.7 961 463 961C437.3 961 411.7 961 386 961C360.3 961 334.7 961 308.8 961C283 961 257 961 231.2 961C205.3 961 179.7 961 154 961C128.3 961 102.7 961 77 961C51.3 961 25.7 961 12.8 961L0 961Z" fill="#f6e15f"></path><path d="M0 633L12.8 626C25.7 619 51.3 605 77 596.7C102.7 588.3 128.3 585.7 154 579.3C179.7 573 205.3 563 231.2 567.2C257 571.3 283 589.7 308.8 604.3C334.7 619 360.3 630 386 627.7C411.7 625.3 437.3 609.7 463 608.3C488.7 607 514.3 620 527.2 626.5L540 633L540 961L527.2 961C514.3 961 488.7 961 463 961C437.3 961 411.7 961 386 961C360.3 961 334.7 961 308.8 961C283 961 257 961 231.2 961C205.3 961 179.7 961 154 961C128.3 961 102.7 961 77 961C51.3 961 25.7 961 12.8 961L0 961Z" fill="#f2d556"></path><path d="M0 585L12.8 590.2C25.7 595.3 51.3 605.7 77 618.3C102.7 631 128.3 646 154 642.2C179.7 638.3 205.3 615.7 231.2 602.2C257 588.7 283 584.3 308.8 582.8C334.7 581.3 360.3 582.7 386 593.8C411.7 605 437.3 626 463 643.3C488.7 660.7 514.3 674.3 527.2 681.2L540 688L540 961L527.2 961C514.3 961 488.7 961 463 961C437.3 961 411.7 961 386 961C360.3 961 334.7 961 308.8 961C283 961 257 961 231.2 961C205.3 961 179.7 961 154 961C128.3 961 102.7 961 77 961C51.3 961 25.7 961 12.8 961L0 961Z" fill="#eec94e"></path><path d="M0 664L12.8 670.5C25.7 677 51.3 690 77 690.8C102.7 691.7 128.3 680.3 154 680C179.7 679.7 205.3 690.3 231.2 687.8C257 685.3 283 669.7 308.8 655.5C334.7 641.3 360.3 628.7 386 633.2C411.7 637.7 437.3 659.3 463 664.3C488.7 669.3 514.3 657.7 527.2 651.8L540 646L540 961L527.2 961C514.3 961 488.7 961 463 961C437.3 961 411.7 961 386 961C360.3 961 334.7 961 308.8 961C283 961 257 961 231.2 961C205.3 961 179.7 961 154 961C128.3 961 102.7 961 77 961C51.3 961 25.7 961 12.8 961L0 961Z" fill="#e9bd46"></path><path d="M0 695L12.8 699.2C25.7 703.3 51.3 711.7 77 718.5C102.7 725.3 128.3 730.7 154 732.3C179.7 734 205.3 732 231.2 728.3C257 724.7 283 719.3 308.8 721.7C334.7 724 360.3 734 386 724.5C411.7 715 437.3 686 463 681.7C488.7 677.3 514.3 697.7 527.2 707.8L540 718L540 961L527.2 961C514.3 961 488.7 961 463 961C437.3 961 411.7 961 386 961C360.3 961 334.7 961 308.8 961C283 961 257 961 231.2 961C205.3 961 179.7 961 154 961C128.3 961 102.7 961 77 961C51.3 961 25.7 961 12.8 961L0 961Z" fill="#e5b23e"></path><path d="M0 695L12.8 709.5C25.7 724 51.3 753 77 753.8C102.7 754.7 128.3 727.3 154 717.7C179.7 708 205.3 716 231.2 725.5C257 735 283 746 308.8 748.2C334.7 750.3 360.3 743.7 386 741.7C411.7 739.7 437.3 742.3 463 748.7C488.7 755 514.3 765 527.2 770L540 775L540 961L527.2 961C514.3 961 488.7 961 463 961C437.3 961 411.7 961 386 961C360.3 961 334.7 961 308.8 961C283 961 257 961 231.2 961C205.3 961 179.7 961 154 961C128.3 961 102.7 961 77 961C51.3 961 25.7 961 12.8 961L0 961Z" fill="#dfa638"></path><path d="M0 746L12.8 752.5C25.7 759 51.3 772 77 776.2C102.7 780.3 128.3 775.7 154 779.3C179.7 783 205.3 795 231.2 790.8C257 786.7 283 766.3 308.8 759.7C334.7 753 360.3 760 386 763.5C411.7 767 437.3 767 463 769.5C488.7 772 514.3 777 527.2 779.5L540 782L540 961L527.2 961C514.3 961 488.7 961 463 961C437.3 961 411.7 961 386 961C360.3 961 334.7 961 308.8 961C283 961 257 961 231.2 961C205.3 961 179.7 961 154 961C128.3 961 102.7 961 77 961C51.3 961 25.7 961 12.8 961L0 961Z" fill="#da9b31"></path><path d="M0 843L12.8 831.8C25.7 820.7 51.3 798.3 77 793.2C102.7 788 128.3 800 154 811.3C179.7 822.7 205.3 833.3 231.2 832.7C257 832 283 820 308.8 815.3C334.7 810.7 360.3 813.3 386 816.3C411.7 819.3 437.3 822.7 463 818C488.7 813.3 514.3 800.7 527.2 794.3L540 788L540 961L527.2 961C514.3 961 488.7 961 463 961C437.3 961 411.7 961 386 961C360.3 961 334.7 961 308.8 961C283 961 257 961 231.2 961C205.3 961 179.7 961 154 961C128.3 961 102.7 961 77 961C51.3 961 25.7 961 12.8 961L0 961Z" fill="#d48f2c"></path><path d="M0 831L12.8 834.8C25.7 838.7 51.3 846.3 77 846.2C102.7 846 128.3 838 154 831.2C179.7 824.3 205.3 818.7 231.2 816.5C257 814.3 283 815.7 308.8 824.8C334.7 834 360.3 851 386 851.8C411.7 852.7 437.3 837.3 463 837C488.7 836.7 514.3 851.3 527.2 858.7L540 866L540 961L527.2 961C514.3 961 488.7 961 463 961C437.3 961 411.7 961 386 961C360.3 961 334.7 961 308.8 961C283 961 257 961 231.2 961C205.3 961 179.7 961 154 961C128.3 961 102.7 961 77 961C51.3 961 25.7 961 12.8 961L0 961Z" fill="#ce8427"></path><path d="M0 871L12.8 875.8C25.7 880.7 51.3 890.3 77 889.5C102.7 888.7 128.3 877.3 154 870.7C179.7 864 205.3 862 231.2 864.7C257 867.3 283 874.7 308.8 880.8C334.7 887 360.3 892 386 892.2C411.7 892.3 437.3 887.7 463 885.3C488.7 883 514.3 883 527.2 883L540 883L540 961L527.2 961C514.3 961 488.7 961 463 961C437.3 961 411.7 961 386 961C360.3 961 334.7 961 308.8 961C283 961 257 961 231.2 961C205.3 961 179.7 961 154 961C128.3 961 102.7 961 77 961C51.3 961 25.7 961 12.8 961L0 961Z" fill="#c87822"></path><path d="M0 894L12.8 898.8C25.7 903.7 51.3 913.3 77 918.2C102.7 923 128.3 923 154 924.2C179.7 925.3 205.3 927.7 231.2 926.3C257 925 283 920 308.8 918.8C334.7 917.7 360.3 920.3 386 920.8C411.7 921.3 437.3 919.7 463 915.2C488.7 910.7 514.3 903.3 527.2 899.7L540 896L540 961L527.2 961C514.3 961 488.7 961 463 961C437.3 961 411.7 961 386 961C360.3 961 334.7 961 308.8 961C283 961 257 961 231.2 961C205.3 961 179.7 961 154 961C128.3 961 102.7 961 77 961C51.3 961 25.7 961 12.8 961L0 961Z" fill="#c16d1e"></path></svg>