<svg id="visual" viewBox="0 0 540 960" width="540" height="960" xmlns="http://www.w3.org/2000/svg" xmlns:xlink="http://www.w3.org/1999/xlink" version="1.1"><g stroke-width="1" stroke-linejoin="bevel"><path d="M303 483L233 492L291.5 524Z" fill="#08131b" stroke="#000"></path><path d="M233 492L215.5 558L291.5 524Z" fill="#0f2231" stroke="#000"></path><path d="M217 396L188.5 464L233 492Z" fill="#0f2231" stroke="#000"></path><path d="M233 492L184.5 473L215.5 558Z" fill="#0e1f2d" stroke="#000"></path><path d="M188.5 464L184.5 473L233 492Z" fill="#0f2f44" stroke="#000"></path><path d="M322 613L371.5 502L291.5 524Z" fill="#050f17" stroke="#000"></path><path d="M291.5 524L371.5 502L303 483Z" fill="#0e1f2d" stroke="#000"></path><path d="M390.5 463L291.5 389L303 483Z" fill="#0c1924" stroke="#000"></path><path d="M303 483L291.5 389L233 492Z" fill="#050f17" stroke="#000"></path><path d="M291.5 389L217 396L233 492Z" fill="#0f2231" stroke="#000"></path><path d="M188.5 464L125 438L184.5 473Z" fill="#0f2f44" stroke="#000"></path><path d="M215.5 558L259.5 616L291.5 524Z" fill="#08131b" stroke="#000"></path><path d="M371.5 502L390.5 463L303 483Z" fill="#08131b" stroke="#000"></path><path d="M259.5 616L322 613L291.5 524Z" fill="#0f2536" stroke="#000"></path><path d="M371.5 502L461 486L390.5 463Z" fill="#0b161f" stroke="#000"></path><path d="M315.5 639L332 623L322 613Z" fill="#0b161f" stroke="#000"></path><path d="M322 613L409 575L371.5 502Z" fill="#0c1924" stroke="#000"></path><path d="M291.5 389L239.5 352L217 396Z" fill="#0c1924" stroke="#000"></path><path d="M259.5 616L315.5 639L322 613Z" fill="#08131b" stroke="#000"></path><path d="M113 428L125 438L217 396Z" fill="#0d1c28" stroke="#000"></path><path d="M217 396L125 438L188.5 464Z" fill="#0f283b" stroke="#000"></path><path d="M184.5 473L104.5 551L215.5 558Z" fill="#0f2c3f" stroke="#000"></path><path d="M239.5 352L206.5 351L217 396Z" fill="#0f2231" stroke="#000"></path><path d="M436 596L409 575L332 623Z" fill="#050f17" stroke="#000"></path><path d="M332 623L409 575L322 613Z" fill="#0c1924" stroke="#000"></path><path d="M206.5 351L113 428L217 396Z" fill="#0b161f" stroke="#000"></path><path d="M125 438L104.5 551L184.5 473Z" fill="#0d1c28" stroke="#000"></path><path d="M215.5 558L118 633L259.5 616Z" fill="#0f2f44" stroke="#000"></path><path d="M85.5 424L104.5 551L125 438Z" fill="#0f283b" stroke="#000"></path><path d="M0 547L100 560L104.5 551Z" fill="#0e1f2d" stroke="#000"></path><path d="M104.5 551L100 560L215.5 558Z" fill="#0b161f" stroke="#000"></path><path d="M259.5 616L282 698L315.5 639Z" fill="#0b161f" stroke="#000"></path><path d="M409 575L461 486L371.5 502Z" fill="#0f2231" stroke="#000"></path><path d="M379 291L357.5 290L291.5 389Z" fill="#0f2f44" stroke="#000"></path><path d="M291.5 389L357.5 290L239.5 352Z" fill="#0f283b" stroke="#000"></path><path d="M457 652L436 596L332 623Z" fill="#0e1f2d" stroke="#000"></path><path d="M409 575L436 596L461 486Z" fill="#0f2f44" stroke="#000"></path><path d="M134 299L85.5 424L113 428Z" fill="#08131b" stroke="#000"></path><path d="M113 428L85.5 424L125 438Z" fill="#0f283b" stroke="#000"></path><path d="M192.5 709L282 698L259.5 616Z" fill="#0f2c3f" stroke="#000"></path><path d="M443 725L457 652L332 623Z" fill="#0e1f2d" stroke="#000"></path><path d="M100 560L118 633L215.5 558Z" fill="#0f2536" stroke="#000"></path><path d="M100 560L95.5 607L118 633Z" fill="#0f2536" stroke="#000"></path><path d="M87.5 620L95.5 607L0 586Z" fill="#0f2c3f" stroke="#000"></path><path d="M0 586L95.5 607L100 560Z" fill="#0c1924" stroke="#000"></path><path d="M95.5 607L87.5 620L118 633Z" fill="#0f283b" stroke="#000"></path><path d="M379 291L291.5 389L448 336Z" fill="#0c1924" stroke="#000"></path><path d="M226.5 256L134 299L206.5 351Z" fill="#0c1924" stroke="#000"></path><path d="M87.5 620L100 644L118 633Z" fill="#050f17" stroke="#000"></path><path d="M118 633L192.5 709L259.5 616Z" fill="#0e1f2d" stroke="#000"></path><path d="M93.5 704L192.5 709L118 633Z" fill="#0e1f2d" stroke="#000"></path><path d="M519.5 545L493.5 460L461 486Z" fill="#0e1f2d" stroke="#000"></path><path d="M461 486L493.5 460L390.5 463Z" fill="#08131b" stroke="#000"></path><path d="M448 336L291.5 389L390.5 463Z" fill="#0e1f2d" stroke="#000"></path><path d="M226.5 256L206.5 351L239.5 352Z" fill="#0e1f2d" stroke="#000"></path><path d="M206.5 351L134 299L113 428Z" fill="#0f2f44" stroke="#000"></path><path d="M507.5 421L448 336L390.5 463Z" fill="#0f2231" stroke="#000"></path><path d="M287.5 243L258 256L357.5 290Z" fill="#0f2c3f" stroke="#000"></path><path d="M357.5 290L258 256L239.5 352Z" fill="#0f2c3f" stroke="#000"></path><path d="M226.5 256L130 297L134 299Z" fill="#0f283b" stroke="#000"></path><path d="M134 299L130 297L85.5 424Z" fill="#0f283b" stroke="#000"></path><path d="M258 256L226.5 256L239.5 352Z" fill="#0e1f2d" stroke="#000"></path><path d="M443 725L332 623L315.5 639Z" fill="#0c1924" stroke="#000"></path><path d="M436 596L519.5 545L461 486Z" fill="#0f2231" stroke="#000"></path><path d="M48.5 304L40.5 407L85.5 424Z" fill="#0f2231" stroke="#000"></path><path d="M85.5 424L0 547L104.5 551Z" fill="#0b161f" stroke="#000"></path><path d="M192.5 709L248 743L282 698Z" fill="#050f17" stroke="#000"></path><path d="M282 698L299.5 756L315.5 639Z" fill="#0f2f44" stroke="#000"></path><path d="M540 425L507.5 421L493.5 460Z" fill="#0d1c28" stroke="#000"></path><path d="M493.5 460L507.5 421L390.5 463Z" fill="#0e1f2d" stroke="#000"></path><path d="M448 336L478.5 261L379 291Z" fill="#0e1f2d" stroke="#000"></path><path d="M507.5 421L464 339L448 336Z" fill="#0d1c28" stroke="#000"></path><path d="M443 725L467.5 648L457 652Z" fill="#0d1c28" stroke="#000"></path><path d="M457 652L467.5 648L436 596Z" fill="#0e1f2d" stroke="#000"></path><path d="M337.5 200L287.5 243L357.5 290Z" fill="#0f2c3f" stroke="#000"></path><path d="M258 256L266 217L226.5 256Z" fill="#050f17" stroke="#000"></path><path d="M467.5 648L477.5 640L436 596Z" fill="#0d1c28" stroke="#000"></path><path d="M477.5 640L519.5 545L436 596Z" fill="#0f2f44" stroke="#000"></path><path d="M248 743L299.5 756L282 698Z" fill="#0b161f" stroke="#000"></path><path d="M0 646L89.5 698L100 644Z" fill="#050f17" stroke="#000"></path><path d="M100 644L93.5 704L118 633Z" fill="#0f2f44" stroke="#000"></path><path d="M191 778L224.5 783L248 743Z" fill="#0c1924" stroke="#000"></path><path d="M0 646L100 644L87.5 620Z" fill="#08131b" stroke="#000"></path><path d="M540 425L513.5 376L507.5 421Z" fill="#0f2231" stroke="#000"></path><path d="M507.5 421L513.5 376L464 339Z" fill="#0f2f44" stroke="#000"></path><path d="M89.5 698L93.5 704L100 644Z" fill="#08131b" stroke="#000"></path><path d="M0 438L0 547L85.5 424Z" fill="#0f2c3f" stroke="#000"></path><path d="M0 379L0 438L40.5 407Z" fill="#08131b" stroke="#000"></path><path d="M40.5 407L0 438L85.5 424Z" fill="#0f2231" stroke="#000"></path><path d="M337.5 200L266 217L287.5 243Z" fill="#0c1924" stroke="#000"></path><path d="M287.5 243L266 217L258 256Z" fill="#0c1924" stroke="#000"></path><path d="M226.5 256L162 132L130 297Z" fill="#0f2f44" stroke="#000"></path><path d="M337.5 200L357.5 290L384 196Z" fill="#0f2231" stroke="#000"></path><path d="M477.5 640L540 566L519.5 545Z" fill="#0c1924" stroke="#000"></path><path d="M519.5 545L540 425L493.5 460Z" fill="#0f2231" stroke="#000"></path><path d="M540 566L540 425L519.5 545Z" fill="#0c1924" stroke="#000"></path><path d="M93.5 704L154.5 754L192.5 709Z" fill="#0f2c3f" stroke="#000"></path><path d="M248 743L224.5 783L299.5 756Z" fill="#0f2231" stroke="#000"></path><path d="M0 547L0 586L100 560Z" fill="#0c1924" stroke="#000"></path><path d="M89.5 698L80 742L93.5 704Z" fill="#08131b" stroke="#000"></path><path d="M540 651L540 629L477.5 640Z" fill="#0f2536" stroke="#000"></path><path d="M477.5 640L540 629L540 566Z" fill="#050f17" stroke="#000"></path><path d="M299.5 756L443 725L315.5 639Z" fill="#0b161f" stroke="#000"></path><path d="M191 778L248 743L192.5 709Z" fill="#0f2536" stroke="#000"></path><path d="M299.5 756L373.5 810L443 725Z" fill="#0f2f44" stroke="#000"></path><path d="M0 248L48.5 304L130 297Z" fill="#050f17" stroke="#000"></path><path d="M130 297L48.5 304L85.5 424Z" fill="#0c1924" stroke="#000"></path><path d="M154.5 754L191 778L192.5 709Z" fill="#050f17" stroke="#000"></path><path d="M3.5 360L0 379L40.5 407Z" fill="#0f2536" stroke="#000"></path><path d="M513.5 376L496.5 308L464 339Z" fill="#0d1c28" stroke="#000"></path><path d="M464 339L496.5 308L448 336Z" fill="#0f2536" stroke="#000"></path><path d="M540 353L496.5 308L513.5 376Z" fill="#0f2536" stroke="#000"></path><path d="M48.5 304L3.5 360L40.5 407Z" fill="#0f2f44" stroke="#000"></path><path d="M540 651L477.5 640L540 682Z" fill="#0b161f" stroke="#000"></path><path d="M48.5 304L0 356L3.5 360Z" fill="#08131b" stroke="#000"></path><path d="M3.5 360L0 356L0 379Z" fill="#08131b" stroke="#000"></path><path d="M384 196L357.5 290L379 291Z" fill="#0f2c3f" stroke="#000"></path><path d="M0 586L0 639L87.5 620Z" fill="#08131b" stroke="#000"></path><path d="M93.5 704L80 742L154.5 754Z" fill="#08131b" stroke="#000"></path><path d="M540 425L540 353L513.5 376Z" fill="#0f2231" stroke="#000"></path><path d="M0 639L0 646L87.5 620Z" fill="#0f2231" stroke="#000"></path><path d="M0 646L80 742L89.5 698Z" fill="#0f2c3f" stroke="#000"></path><path d="M125.5 811L189 823L191 778Z" fill="#0b161f" stroke="#000"></path><path d="M540 682L477.5 640L467.5 648Z" fill="#0b161f" stroke="#000"></path><path d="M540 287L478.5 261L496.5 308Z" fill="#050f17" stroke="#000"></path><path d="M496.5 308L478.5 261L448 336Z" fill="#050f17" stroke="#000"></path><path d="M478.5 261L384 196L379 291Z" fill="#0f2c3f" stroke="#000"></path><path d="M251 167L234 175L266 217Z" fill="#08131b" stroke="#000"></path><path d="M266 217L234 175L226.5 256Z" fill="#0f2231" stroke="#000"></path><path d="M251 167L266 217L261.5 161Z" fill="#0d1c28" stroke="#000"></path><path d="M443 725L540 682L467.5 648Z" fill="#0e1f2d" stroke="#000"></path><path d="M261.5 161L266 217L337.5 200Z" fill="#0b161f" stroke="#000"></path><path d="M308 879L299.5 756L224.5 783Z" fill="#0b161f" stroke="#000"></path><path d="M308 879L373.5 810L299.5 756Z" fill="#0f283b" stroke="#000"></path><path d="M443 725L523.5 770L540 682Z" fill="#0b161f" stroke="#000"></path><path d="M540 353L540 301L496.5 308Z" fill="#0f2536" stroke="#000"></path><path d="M478.5 261L407 177L384 196Z" fill="#0f2f44" stroke="#000"></path><path d="M285.5 96L261.5 161L337.5 200Z" fill="#0f2c3f" stroke="#000"></path><path d="M251 167L239.5 154L234 175Z" fill="#0f2c3f" stroke="#000"></path><path d="M125.5 811L191 778L154.5 754Z" fill="#0f2f44" stroke="#000"></path><path d="M191 778L189 823L224.5 783Z" fill="#0c1924" stroke="#000"></path><path d="M0 248L0 291L48.5 304Z" fill="#0e1f2d" stroke="#000"></path><path d="M48.5 304L0 291L0 356Z" fill="#0b161f" stroke="#000"></path><path d="M0 248L130 297L9.5 177Z" fill="#050f17" stroke="#000"></path><path d="M540 301L540 287L496.5 308Z" fill="#0f283b" stroke="#000"></path><path d="M285.5 96L239.5 154L261.5 161Z" fill="#0e1f2d" stroke="#000"></path><path d="M261.5 161L239.5 154L251 167Z" fill="#0f2231" stroke="#000"></path><path d="M80 742L125.5 811L154.5 754Z" fill="#0f2536" stroke="#000"></path><path d="M139.5 853L125.5 811L70.5 933Z" fill="#0f2f44" stroke="#000"></path><path d="M479.5 138L407 177L478.5 261Z" fill="#0e1f2d" stroke="#000"></path><path d="M384 196L358.5 91L337.5 200Z" fill="#0d1c28" stroke="#000"></path><path d="M162 132L226.5 256L234 175Z" fill="#0f2536" stroke="#000"></path><path d="M139.5 853L154 850L125.5 811Z" fill="#0d1c28" stroke="#000"></path><path d="M125.5 811L154 850L189 823Z" fill="#0f2c3f" stroke="#000"></path><path d="M368.5 892L407 846L373.5 810Z" fill="#0f2536" stroke="#000"></path><path d="M460 823L523.5 770L443 725Z" fill="#0f2c3f" stroke="#000"></path><path d="M308 879L224.5 783L189 823Z" fill="#0d1c28" stroke="#000"></path><path d="M373.5 810L460 823L443 725Z" fill="#0f283b" stroke="#000"></path><path d="M178 88L162 132L239.5 154Z" fill="#0c1924" stroke="#000"></path><path d="M239.5 154L162 132L234 175Z" fill="#050f17" stroke="#000"></path><path d="M407 846L460 823L373.5 810Z" fill="#050f17" stroke="#000"></path><path d="M0 802L125.5 811L80 742Z" fill="#0d1c28" stroke="#000"></path><path d="M266 960L308 879L189 823Z" fill="#0c1924" stroke="#000"></path><path d="M314 887L308 879L309.5 938Z" fill="#0f2536" stroke="#000"></path><path d="M0 646L0 773L80 742Z" fill="#0f2c3f" stroke="#000"></path><path d="M540 287L540 220L478.5 261Z" fill="#0f2231" stroke="#000"></path><path d="M540 784L540 774L523.5 770Z" fill="#0c1924" stroke="#000"></path><path d="M523.5 770L540 774L540 682Z" fill="#0f283b" stroke="#000"></path><path d="M309.5 938L308 879L266 960Z" fill="#08131b" stroke="#000"></path><path d="M308 879L368.5 892L373.5 810Z" fill="#0d1c28" stroke="#000"></path><path d="M407 846L465 870L460 823Z" fill="#0b161f" stroke="#000"></path><path d="M460 823L540 784L523.5 770Z" fill="#0f2f44" stroke="#000"></path><path d="M358.5 91L384 196L407 177Z" fill="#08131b" stroke="#000"></path><path d="M358.5 91L285.5 96L337.5 200Z" fill="#0b161f" stroke="#000"></path><path d="M0 773L0 802L80 742Z" fill="#0f2c3f" stroke="#000"></path><path d="M314 887L368.5 892L308 879Z" fill="#050f17" stroke="#000"></path><path d="M460 823L540 870L540 784Z" fill="#0f2536" stroke="#000"></path><path d="M160 81L106.5 119L162 132Z" fill="#0f2f44" stroke="#000"></path><path d="M162 132L106.5 119L130 297Z" fill="#0c1924" stroke="#000"></path><path d="M106.5 119L9.5 177L130 297Z" fill="#0e1f2d" stroke="#000"></path><path d="M430.5 88L358.5 91L407 177Z" fill="#0d1c28" stroke="#000"></path><path d="M540 220L479.5 138L478.5 261Z" fill="#0c1924" stroke="#000"></path><path d="M285.5 96L178 88L239.5 154Z" fill="#050f17" stroke="#000"></path><path d="M160 81L178 88L143.5 44Z" fill="#0f2c3f" stroke="#000"></path><path d="M368.5 892L465 870L407 846Z" fill="#0f2231" stroke="#000"></path><path d="M278 63L178 88L285.5 96Z" fill="#0f2536" stroke="#000"></path><path d="M178 88L160 81L162 132Z" fill="#0f2f44" stroke="#000"></path><path d="M106.5 119L0 68L9.5 177Z" fill="#0e1f2d" stroke="#000"></path><path d="M358.5 91L278 63L285.5 96Z" fill="#0b161f" stroke="#000"></path><path d="M479.5 138L430.5 88L407 177Z" fill="#0f2536" stroke="#000"></path><path d="M305.5 0L255 0L278 63Z" fill="#0f2c3f" stroke="#000"></path><path d="M314 887L309.5 938L368.5 892Z" fill="#0b161f" stroke="#000"></path><path d="M515.5 933L508.5 886L465 870Z" fill="#0e1f2d" stroke="#000"></path><path d="M266 960L189 823L180 960Z" fill="#0d1c28" stroke="#000"></path><path d="M189 823L154 850L180 960Z" fill="#0f2536" stroke="#000"></path><path d="M540 220L540 129L479.5 138Z" fill="#0f2231" stroke="#000"></path><path d="M479.5 138L469.5 76L430.5 88Z" fill="#0f2f44" stroke="#000"></path><path d="M376 960L465 870L368.5 892Z" fill="#0d1c28" stroke="#000"></path><path d="M465 870L508.5 886L460 823Z" fill="#0f2536" stroke="#000"></path><path d="M143.5 44L108.5 66L160 81Z" fill="#0e1f2d" stroke="#000"></path><path d="M160 81L108.5 66L106.5 119Z" fill="#0f2231" stroke="#000"></path><path d="M508.5 886L540 870L460 823Z" fill="#0f2231" stroke="#000"></path><path d="M180 960L154 850L177.5 960Z" fill="#0f2536" stroke="#000"></path><path d="M309.5 938L359.5 960L368.5 892Z" fill="#0e1f2d" stroke="#000"></path><path d="M430.5 88L446 59L358.5 91Z" fill="#08131b" stroke="#000"></path><path d="M540 129L469.5 76L479.5 138Z" fill="#0f2f44" stroke="#000"></path><path d="M189 0L143.5 44L178 88Z" fill="#0e1f2d" stroke="#000"></path><path d="M213.5 0L178 88L278 63Z" fill="#0e1f2d" stroke="#000"></path><path d="M469.5 76L446 59L430.5 88Z" fill="#0e1f2d" stroke="#000"></path><path d="M177.5 960L154 850L139.5 853Z" fill="#0f2f44" stroke="#000"></path><path d="M266 960L359.5 960L309.5 938Z" fill="#050f17" stroke="#000"></path><path d="M92.5 960L177.5 960L139.5 853Z" fill="#0e1f2d" stroke="#000"></path><path d="M359.5 960L376 960L368.5 892Z" fill="#050f17" stroke="#000"></path><path d="M508.5 886L515.5 933L540 870Z" fill="#0c1924" stroke="#000"></path><path d="M0 802L70.5 933L125.5 811Z" fill="#0f2536" stroke="#000"></path><path d="M305.5 0L278 63L358.5 91Z" fill="#08131b" stroke="#000"></path><path d="M70.5 933L92.5 960L139.5 853Z" fill="#050f17" stroke="#000"></path><path d="M431 0L305.5 0L358.5 91Z" fill="#0f2c3f" stroke="#000"></path><path d="M255 0L213.5 0L278 63Z" fill="#0f2231" stroke="#000"></path><path d="M213.5 0L189 0L178 88Z" fill="#050f17" stroke="#000"></path><path d="M0 37L0 68L52.5 0Z" fill="#0c1924" stroke="#000"></path><path d="M504.5 960L515.5 933L465 870Z" fill="#0f2536" stroke="#000"></path><path d="M108.5 66L0 68L106.5 119Z" fill="#0d1c28" stroke="#000"></path><path d="M9.5 177L0 68L0 248Z" fill="#0f2536" stroke="#000"></path><path d="M0 68L108.5 66L52.5 0Z" fill="#0d1c28" stroke="#000"></path><path d="M376 960L504.5 960L465 870Z" fill="#08131b" stroke="#000"></path><path d="M502.5 0L431 0L446 59Z" fill="#0f2231" stroke="#000"></path><path d="M446 59L431 0L358.5 91Z" fill="#0f2f44" stroke="#000"></path><path d="M502.5 0L446 59L469.5 76Z" fill="#0b161f" stroke="#000"></path><path d="M52.5 0L108.5 66L143.5 44Z" fill="#0f2f44" stroke="#000"></path><path d="M0 802L0 959L70.5 933Z" fill="#0f2f44" stroke="#000"></path><path d="M70.5 933L0 960L92.5 960Z" fill="#0b161f" stroke="#000"></path><path d="M0 959L0 960L70.5 933Z" fill="#0e1f2d" stroke="#000"></path><path d="M504.5 960L540 960L515.5 933Z" fill="#0c1924" stroke="#000"></path><path d="M515.5 933L540 960L540 870Z" fill="#0f2c3f" stroke="#000"></path><path d="M189 0L52.5 0L143.5 44Z" fill="#0f2c3f" stroke="#000"></path><path d="M540 11L502.5 0L469.5 76Z" fill="#0f2536" stroke="#000"></path><path d="M540 129L540 11L469.5 76Z" fill="#050f17" stroke="#000"></path><path d="M52.5 0L0 0L0 37Z" fill="#0e1f2d" stroke="#000"></path><path d="M540 11L540 0L502.5 0Z" fill="#0c1924" stroke="#000"></path></g></svg>