<svg id="visual" viewBox="0 0 900 600" width="900" height="600" xmlns="http://www.w3.org/2000/svg" xmlns:xlink="http://www.w3.org/1999/xlink" version="1.1"><path d="M0 19L47 19L47 43L95 43L95 67L142 67L142 61L189 61L189 49L237 49L237 73L284 73L284 49L332 49L332 61L379 61L379 31L426 31L426 61L474 61L474 31L521 31L521 79L568 79L568 67L616 67L616 49L663 49L663 49L711 49L711 43L758 43L758 73L805 73L805 25L853 25L853 85L900 85L900 85L900 0L900 0L853 0L853 0L805 0L805 0L758 0L758 0L711 0L711 0L663 0L663 0L616 0L616 0L568 0L568 0L521 0L521 0L474 0L474 0L426 0L426 0L379 0L379 0L332 0L332 0L284 0L284 0L237 0L237 0L189 0L189 0L142 0L142 0L95 0L95 0L47 0L47 0L0 0Z" fill="#050f17"></path><path d="M0 97L47 97L47 127L95 127L95 127L142 127L142 145L189 145L189 187L237 187L237 199L284 199L284 115L332 115L332 103L379 103L379 109L426 109L426 151L474 151L474 139L521 139L521 115L568 115L568 193L616 193L616 163L663 163L663 163L711 163L711 139L758 139L758 145L805 145L805 133L853 133L853 211L900 211L900 151L900 83L900 83L853 83L853 23L805 23L805 71L758 71L758 41L711 41L711 47L663 47L663 47L616 47L616 65L568 65L568 77L521 77L521 29L474 29L474 59L426 59L426 29L379 29L379 59L332 59L332 47L284 47L284 71L237 71L237 47L189 47L189 59L142 59L142 65L95 65L95 41L47 41L47 17L0 17Z" fill="#09141d"></path><path d="M0 205L47 205L47 265L95 265L95 259L142 259L142 343L189 343L189 265L237 265L237 277L284 277L284 241L332 241L332 181L379 181L379 229L426 229L426 295L474 295L474 205L521 205L521 307L568 307L568 391L616 391L616 253L663 253L663 259L711 259L711 361L758 361L758 265L805 265L805 277L853 277L853 355L900 355L900 313L900 149L900 209L853 209L853 131L805 131L805 143L758 143L758 137L711 137L711 161L663 161L663 161L616 161L616 191L568 191L568 113L521 113L521 137L474 137L474 149L426 149L426 107L379 107L379 101L332 101L332 113L284 113L284 197L237 197L237 185L189 185L189 143L142 143L142 125L95 125L95 125L47 125L47 95L0 95Z" fill="#0c1923"></path><path d="M0 325L47 325L47 367L95 367L95 295L142 295L142 385L189 385L189 385L237 385L237 325L284 325L284 355L332 355L332 211L379 211L379 253L426 253L426 379L474 379L474 283L521 283L521 403L568 403L568 427L616 427L616 331L663 331L663 307L711 307L711 391L758 391L758 355L805 355L805 391L853 391L853 403L900 403L900 337L900 311L900 353L853 353L853 275L805 275L805 263L758 263L758 359L711 359L711 257L663 257L663 251L616 251L616 389L568 389L568 305L521 305L521 203L474 203L474 293L426 293L426 227L379 227L379 179L332 179L332 239L284 239L284 275L237 275L237 263L189 263L189 341L142 341L142 257L95 257L95 263L47 263L47 203L0 203Z" fill="#0d1d2a"></path><path d="M0 535L47 535L47 481L95 481L95 511L142 511L142 475L189 475L189 541L237 541L237 493L284 493L284 511L332 511L332 469L379 469L379 475L426 475L426 517L474 517L474 493L521 493L521 517L568 517L568 475L616 475L616 499L663 499L663 451L711 451L711 469L758 469L758 517L805 517L805 493L853 493L853 481L900 481L900 505L900 335L900 401L853 401L853 389L805 389L805 353L758 353L758 389L711 389L711 305L663 305L663 329L616 329L616 425L568 425L568 401L521 401L521 281L474 281L474 377L426 377L426 251L379 251L379 209L332 209L332 353L284 353L284 323L237 323L237 383L189 383L189 383L142 383L142 293L95 293L95 365L47 365L47 323L0 323Z" fill="#0e2131"></path><path d="M0 583L47 583L47 547L95 547L95 571L142 571L142 553L189 553L189 577L237 577L237 559L284 559L284 565L332 565L332 547L379 547L379 553L426 553L426 577L474 577L474 571L521 571L521 559L568 559L568 535L616 535L616 535L663 535L663 529L711 529L711 541L758 541L758 577L805 577L805 577L853 577L853 571L900 571L900 583L900 503L900 479L853 479L853 491L805 491L805 515L758 515L758 467L711 467L711 449L663 449L663 497L616 497L616 473L568 473L568 515L521 515L521 491L474 491L474 515L426 515L426 473L379 473L379 467L332 467L332 509L284 509L284 491L237 491L237 539L189 539L189 473L142 473L142 509L95 509L95 479L47 479L47 533L0 533Z" fill="#0f2637"></path><path d="M0 601L47 601L47 601L95 601L95 601L142 601L142 601L189 601L189 601L237 601L237 601L284 601L284 601L332 601L332 601L379 601L379 601L426 601L426 601L474 601L474 601L521 601L521 601L568 601L568 601L616 601L616 601L663 601L663 601L711 601L711 601L758 601L758 601L805 601L805 601L853 601L853 601L900 601L900 601L900 581L900 569L853 569L853 575L805 575L805 575L758 575L758 539L711 539L711 527L663 527L663 533L616 533L616 533L568 533L568 557L521 557L521 569L474 569L474 575L426 575L426 551L379 551L379 545L332 545L332 563L284 563L284 557L237 557L237 575L189 575L189 551L142 551L142 569L95 569L95 545L47 545L47 581L0 581Z" fill="#102a3e"></path></svg>