<svg id="visual" viewBox="0 0 3840 2160" width="3840" height="2160" xmlns="http://www.w3.org/2000/svg" xmlns:xlink="http://www.w3.org/1999/xlink" version="1.1"><path d="M0 66L202 66L202 152L404 152L404 239L606 239L606 217L808 217L808 174L1011 174L1011 260L1213 260L1213 174L1415 174L1415 217L1617 217L1617 109L1819 109L1819 217L2021 217L2021 109L2223 109L2223 282L2425 282L2425 239L2627 239L2627 174L2829 174L2829 174L3032 174L3032 152L3234 152L3234 260L3436 260L3436 87L3638 87L3638 303L3840 303L3840 303L3840 0L3840 0L3638 0L3638 0L3436 0L3436 0L3234 0L3234 0L3032 0L3032 0L2829 0L2829 0L2627 0L2627 0L2425 0L2425 0L2223 0L2223 0L2021 0L2021 0L1819 0L1819 0L1617 0L1617 0L1415 0L1415 0L1213 0L1213 0L1011 0L1011 0L808 0L808 0L606 0L606 0L404 0L404 0L202 0L202 0L0 0Z" fill="#102a3e"></path><path d="M0 347L202 347L202 455L404 455L404 455L606 455L606 519L808 519L808 671L1011 671L1011 714L1213 714L1213 411L1415 411L1415 368L1617 368L1617 390L1819 390L1819 541L2021 541L2021 498L2223 498L2223 411L2425 411L2425 692L2627 692L2627 584L2829 584L2829 584L3032 584L3032 498L3234 498L3234 519L3436 519L3436 476L3638 476L3638 757L3840 757L3840 541L3840 301L3840 301L3638 301L3638 85L3436 85L3436 258L3234 258L3234 150L3032 150L3032 172L2829 172L2829 172L2627 172L2627 237L2425 237L2425 280L2223 280L2223 107L2021 107L2021 215L1819 215L1819 107L1617 107L1617 215L1415 215L1415 172L1213 172L1213 258L1011 258L1011 172L808 172L808 215L606 215L606 237L404 237L404 150L202 150L202 64L0 64Z" fill="#0f2637"></path><path d="M0 735L202 735L202 951L404 951L404 930L606 930L606 1232L808 1232L808 951L1011 951L1011 995L1213 995L1213 865L1415 865L1415 649L1617 649L1617 822L1819 822L1819 1059L2021 1059L2021 735L2223 735L2223 1103L2425 1103L2425 1405L2627 1405L2627 908L2829 908L2829 930L3032 930L3032 1297L3234 1297L3234 951L3436 951L3436 995L3638 995L3638 1275L3840 1275L3840 1124L3840 539L3840 755L3638 755L3638 474L3436 474L3436 517L3234 517L3234 496L3032 496L3032 582L2829 582L2829 582L2627 582L2627 690L2425 690L2425 409L2223 409L2223 496L2021 496L2021 539L1819 539L1819 388L1617 388L1617 366L1415 366L1415 409L1213 409L1213 712L1011 712L1011 669L808 669L808 517L606 517L606 453L404 453L404 453L202 453L202 345L0 345Z" fill="#0e2131"></path><path d="M0 1167L202 1167L202 1319L404 1319L404 1059L606 1059L606 1383L808 1383L808 1383L1011 1383L1011 1167L1213 1167L1213 1275L1415 1275L1415 757L1617 757L1617 908L1819 908L1819 1362L2021 1362L2021 1016L2223 1016L2223 1448L2425 1448L2425 1535L2627 1535L2627 1189L2829 1189L2829 1103L3032 1103L3032 1405L3234 1405L3234 1275L3436 1275L3436 1405L3638 1405L3638 1448L3840 1448L3840 1211L3840 1122L3840 1273L3638 1273L3638 993L3436 993L3436 949L3234 949L3234 1295L3032 1295L3032 928L2829 928L2829 906L2627 906L2627 1403L2425 1403L2425 1101L2223 1101L2223 733L2021 733L2021 1057L1819 1057L1819 820L1617 820L1617 647L1415 647L1415 863L1213 863L1213 993L1011 993L1011 949L808 949L808 1230L606 1230L606 928L404 928L404 949L202 949L202 733L0 733Z" fill="#0d1d2a"></path><path d="M0 1923L202 1923L202 1729L404 1729L404 1837L606 1837L606 1707L808 1707L808 1945L1011 1945L1011 1772L1213 1772L1213 1837L1415 1837L1415 1686L1617 1686L1617 1707L1819 1707L1819 1859L2021 1859L2021 1772L2223 1772L2223 1859L2425 1859L2425 1707L2627 1707L2627 1794L2829 1794L2829 1621L3032 1621L3032 1686L3234 1686L3234 1859L3436 1859L3436 1772L3638 1772L3638 1729L3840 1729L3840 1815L3840 1209L3840 1446L3638 1446L3638 1403L3436 1403L3436 1273L3234 1273L3234 1403L3032 1403L3032 1101L2829 1101L2829 1187L2627 1187L2627 1533L2425 1533L2425 1446L2223 1446L2223 1014L2021 1014L2021 1360L1819 1360L1819 906L1617 906L1617 755L1415 755L1415 1273L1213 1273L1213 1165L1011 1165L1011 1381L808 1381L808 1381L606 1381L606 1057L404 1057L404 1317L202 1317L202 1165L0 1165Z" fill="#0c1923"></path><path d="M0 2096L202 2096L202 1967L404 1967L404 2053L606 2053L606 1988L808 1988L808 2075L1011 2075L1011 2010L1213 2010L1213 2031L1415 2031L1415 1967L1617 1967L1617 1988L1819 1988L1819 2075L2021 2075L2021 2053L2223 2053L2223 2010L2425 2010L2425 1923L2627 1923L2627 1923L2829 1923L2829 1902L3032 1902L3032 1945L3234 1945L3234 2075L3436 2075L3436 2075L3638 2075L3638 2053L3840 2053L3840 2096L3840 1813L3840 1727L3638 1727L3638 1770L3436 1770L3436 1857L3234 1857L3234 1684L3032 1684L3032 1619L2829 1619L2829 1792L2627 1792L2627 1705L2425 1705L2425 1857L2223 1857L2223 1770L2021 1770L2021 1857L1819 1857L1819 1705L1617 1705L1617 1684L1415 1684L1415 1835L1213 1835L1213 1770L1011 1770L1011 1943L808 1943L808 1705L606 1705L606 1835L404 1835L404 1727L202 1727L202 1921L0 1921Z" fill="#09141d"></path><path d="M0 2161L202 2161L202 2161L404 2161L404 2161L606 2161L606 2161L808 2161L808 2161L1011 2161L1011 2161L1213 2161L1213 2161L1415 2161L1415 2161L1617 2161L1617 2161L1819 2161L1819 2161L2021 2161L2021 2161L2223 2161L2223 2161L2425 2161L2425 2161L2627 2161L2627 2161L2829 2161L2829 2161L3032 2161L3032 2161L3234 2161L3234 2161L3436 2161L3436 2161L3638 2161L3638 2161L3840 2161L3840 2161L3840 2094L3840 2051L3638 2051L3638 2073L3436 2073L3436 2073L3234 2073L3234 1943L3032 1943L3032 1900L2829 1900L2829 1921L2627 1921L2627 1921L2425 1921L2425 2008L2223 2008L2223 2051L2021 2051L2021 2073L1819 2073L1819 1986L1617 1986L1617 1965L1415 1965L1415 2029L1213 2029L1213 2008L1011 2008L1011 2073L808 2073L808 1986L606 1986L606 2051L404 2051L404 1965L202 1965L202 2094L0 2094Z" fill="#050f17"></path></svg>